<svg width="60" height="60" viewBox="0 0 60 60" fill="none" xmlns="http://www.w3.org/2000/svg">
<circle cx="30" cy="30" r="30" fill="#546E4D"/>
<g clip-path="url(#clip0_0_1)">
<path d="M29.5 30C30.7856 30 32.0423 29.6188 33.1112 28.9046C34.1801 28.1903 35.0132 27.1752 35.5052 25.9874C35.9972 24.7997 36.1259 23.4928 35.8751 22.2319C35.6243 20.971 35.0052 19.8129 34.0962 18.9038C33.1872 17.9948 32.029 17.3757 30.7681 17.1249C29.5072 16.8741 28.2003 17.0028 27.0126 17.4948C25.8248 17.9868 24.8097 18.8199 24.0954 19.8888C23.3812 20.9577 23 22.2144 23 23.5C23.0026 25.2231 23.6883 26.8749 24.9067 28.0933C26.1251 29.3117 27.7769 29.9974 29.5 30ZM29.5 20C30.1922 20 30.8689 20.2053 31.4445 20.5899C32.0201 20.9744 32.4687 21.5211 32.7336 22.1606C32.9985 22.8002 33.0678 23.5039 32.9327 24.1828C32.7977 24.8618 32.4644 25.4854 31.9749 25.9749C31.4854 26.4644 30.8618 26.7977 30.1828 26.9328C29.5039 27.0678 28.8001 26.9985 28.1606 26.7336C27.5211 26.4687 26.9744 26.0201 26.5899 25.4445C26.2053 24.8689 26 24.1922 26 23.5C26 22.5717 26.3687 21.6815 27.0251 21.0251C27.6815 20.3688 28.5717 20 29.5 20Z" fill="white"/>
<path d="M33.5 31.85H25.5C23.7769 31.8526 22.1251 32.5383 20.9067 33.7567C19.6883 34.9751 19.0026 36.6269 19 38.35V42.85H40V38.35C39.9974 36.6269 39.3117 34.9751 38.0933 33.7567C36.8749 32.5383 35.2231 31.8526 33.5 31.85ZM37 39.85H22V38.35C22 37.4217 22.3687 36.5315 23.0251 35.8751C23.6815 35.2187 24.5717 34.85 25.5 34.85H33.5C34.4283 34.85 35.3185 35.2187 35.9749 35.8751C36.6313 36.5315 37 37.4217 37 38.35V39.85Z" fill="white"/>
</g>
<defs>
<clipPath id="clip0_0_1">
<rect width="21" height="25.85" fill="white" transform="translate(19 17)"/>
</clipPath>
</defs>
</svg>
