<svg width="140" height="40" viewBox="0 0 140 40" fill="none" xmlns="http://www.w3.org/2000/svg">
<g id="btn - entrar" clip-path="url(#clip0_2_19)">
<g id="Layer 2">
<g id="Layer 1">
<path id="Vector" d="M120 0H20C8.9543 0 0 8.9543 0 20C0 31.0457 8.9543 40 20 40H120C131.046 40 140 31.0457 140 20C140 8.9543 131.046 0 120 0Z" fill="#546E4D"/>
<path id="Vector_2" d="M31.26 19.6C29.9744 19.6 28.7177 19.2188 27.6488 18.5045C26.5799 17.7903 25.7468 16.7751 25.2548 15.5874C24.7628 14.3997 24.6341 13.0928 24.8849 11.8319C25.1357 10.571 25.7548 9.41283 26.6638 8.50378C27.5729 7.59474 28.731 6.97568 29.9919 6.72487C31.2528 6.47407 32.5597 6.60279 33.7475 7.09476C34.9352 7.58673 35.9503 8.41985 36.6646 9.48877C37.3788 10.5577 37.76 11.8144 37.76 13.1C37.7574 14.8231 37.0717 16.4748 35.8533 17.6933C34.6349 18.9117 32.9831 19.5973 31.26 19.6ZM31.26 9.59998C30.5678 9.59998 29.8911 9.80525 29.3155 10.1898C28.7399 10.5744 28.2913 11.121 28.0264 11.7606C27.7615 12.4001 27.6922 13.1039 27.8273 13.7828C27.9623 14.4617 28.2957 15.0854 28.7851 15.5749C29.2746 16.0643 29.8983 16.3977 30.5772 16.5327C31.2561 16.6678 31.9599 16.5985 32.5994 16.3336C33.2389 16.0687 33.7856 15.62 34.1702 15.0445C34.5547 14.4689 34.76 13.7922 34.76 13.1C34.76 12.6404 34.6695 12.1852 34.4936 11.7606C34.3177 11.3359 34.0599 10.9501 33.7349 10.6251C33.4099 10.3001 33.024 10.0423 32.5994 9.8664C32.1748 9.69051 31.7196 9.59998 31.26 9.59998Z" fill="white"/>
<path id="Vector_3" d="M41.76 32.45H20.76V28C20.7627 26.2769 21.4483 24.6251 22.6667 23.4067C23.8852 22.1883 25.5369 21.5026 27.26 21.5H35.26C36.9831 21.5026 38.6349 22.1883 39.8533 23.4067C41.0717 24.6251 41.7574 26.2769 41.76 28V32.45ZM23.76 29.45H38.76V28C38.76 27.0717 38.3913 26.1815 37.7349 25.5251C37.0785 24.8687 36.1883 24.5 35.26 24.5H27.26C26.3318 24.5 25.4415 24.8687 24.7851 25.5251C24.1288 26.1815 23.76 27.0717 23.76 28V29.45Z" fill="white"/>
<path id="Vector_4" d="M69 23.47V25.81H59.24V13.21H68.76V15.55H62.14V18.28H68V20.55H62.14V23.47H69Z" fill="white"/>
<path id="Vector_5" d="M79.91 17.0599C80.2994 17.4914 80.5969 17.9976 80.7843 18.5478C80.9717 19.0979 81.0451 19.6805 81 20.2599V25.8099H78.21V20.6999C78.2577 20.0849 78.08 19.4735 77.71 18.9799C77.5232 18.7839 77.2956 18.6312 77.0433 18.5327C76.7911 18.4342 76.5202 18.3923 76.25 18.4099C75.9377 18.3947 75.6257 18.4457 75.3345 18.5594C75.0433 18.6732 74.7793 18.8471 74.56 19.0699C74.1078 19.6073 73.882 20.2993 73.93 20.9999V25.7899H71.12V16.1199H73.8V17.2599C74.1817 16.8257 74.657 16.4838 75.19 16.2599C75.7715 16.0598 76.3857 15.9715 77 15.9999C77.5312 15.9743 78.0621 16.0549 78.5617 16.2369C79.0614 16.4189 79.5198 16.6987 79.91 17.0599Z" fill="white"/>
<path id="Vector_6" d="M89.8 25.34C89.4997 25.5569 89.1601 25.7131 88.8 25.8C88.3842 25.9009 87.9578 25.9512 87.53 25.95C86.5566 26.0135 85.5963 25.6982 84.85 25.07C84.5197 24.7289 84.2652 24.3218 84.1032 23.8755C83.9412 23.4291 83.8754 22.9536 83.91 22.48V18.48H82.41V16.34H83.9V14H86.71V16.36H89.12V18.5H86.71V22.44C86.6859 22.7849 86.7971 23.1257 87.02 23.39C87.1374 23.5036 87.2771 23.5916 87.4304 23.6484C87.5836 23.7052 87.7469 23.7296 87.91 23.72C88.3196 23.731 88.721 23.6042 89.05 23.36L89.8 25.34Z" fill="white"/>
<path id="Vector_7" d="M95.43 16.34C96.0654 16.0858 96.7458 15.9633 97.43 15.98V18.57H96.8C96.4562 18.5499 96.1119 18.5988 95.7873 18.7139C95.4627 18.829 95.1644 19.0079 94.91 19.24C94.669 19.5112 94.4847 19.8278 94.3679 20.1713C94.2511 20.5148 94.2043 20.8782 94.23 21.24V25.81H91.39V16.12H94.07V17.4C94.4152 16.9263 94.8864 16.5591 95.43 16.34Z" fill="white"/>
<path id="Vector_8" d="M106.38 17.05C106.806 17.4669 107.135 17.9723 107.344 18.5304C107.553 19.0886 107.637 19.6858 107.59 20.28V25.81H105V24.6C104.681 25.0904 104.231 25.4816 103.7 25.729C103.17 25.9765 102.581 26.0704 102 26C101.333 26.0193 100.67 25.8895 100.06 25.62C99.5588 25.4087 99.1261 25.0625 98.81 24.62C98.5013 24.1383 98.3542 23.5709 98.39 23C98.3725 22.5906 98.4543 22.1831 98.6285 21.8122C98.8026 21.4413 99.0639 21.118 99.39 20.87C100.328 20.2862 101.428 20.0165 102.53 20.1H104.76C104.776 19.8383 104.734 19.5763 104.637 19.3327C104.54 19.089 104.391 18.8696 104.2 18.69C103.723 18.3242 103.129 18.1462 102.53 18.19C102.013 18.1874 101.499 18.272 101.01 18.44C100.552 18.5807 100.122 18.8007 99.74 19.09L98.74 17.09C99.3183 16.6946 99.9613 16.4035 100.64 16.23C101.382 16.0214 102.149 15.9171 102.92 15.92C104.174 15.8485 105.41 16.252 106.38 17.05ZM104 23.73C104.374 23.5014 104.654 23.1468 104.79 22.73V21.73H102.86C101.71 21.73 101.14 22.11 101.14 22.86C101.133 23.027 101.167 23.1932 101.24 23.3435C101.314 23.4937 101.424 23.6231 101.56 23.72C101.903 23.946 102.31 24.0547 102.72 24.03C103.166 24.0479 103.608 23.9442 104 23.73Z" fill="white"/>
<path id="Vector_9" d="M114.17 16.34C114.805 16.0844 115.486 15.9619 116.17 15.98V18.57H115.54C115.196 18.5482 114.851 18.5963 114.526 18.7115C114.202 18.8266 113.903 19.0064 113.65 19.24C113.408 19.5107 113.222 19.827 113.103 20.1705C112.985 20.5139 112.936 20.8775 112.96 21.24V25.81H110.15V16.12H112.84V17.4C113.175 16.9285 113.636 16.5611 114.17 16.34Z" fill="white"/>
</g>
</g>
</g>
<defs>
<clipPath id="clip0_2_19">
<rect width="140" height="40" fill="white"/>
</clipPath>
</defs>
</svg>
