<svg width="24" height="29" viewBox="0 0 24 29" fill="none" xmlns="http://www.w3.org/2000/svg">
<path id="Vector" d="M18.8699 18L23.4399 20.12C21.5199 25.28 15.7899 29.12 10.0499 27.9C8.41327 27.5578 6.87959 26.8368 5.57192 25.7948C4.26424 24.7528 3.21897 23.4189 2.51991 21.9C-0.840085 14.62 0.639915 3.89999 9.12992 0.899987C17.4699 -2.31001 26.4599 6.72999 21.3199 14.55C20.0976 16.1157 18.5327 17.3804 16.7455 18.2472C14.9583 19.1139 12.9962 19.5596 11.0099 19.55C11.1128 19.7396 11.2263 19.9232 11.3499 20.1C14.0099 23.1 17.0199 20.73 18.8699 18.1V18ZM10.1599 13.17C12.3699 13.17 15.2599 12.92 16.0299 11.39C16.1729 11.1333 16.2618 10.85 16.291 10.5576C16.3203 10.2652 16.2892 9.96992 16.1999 9.68999C15.9743 9.2868 15.64 8.95499 15.2352 8.73226C14.8304 8.50953 14.3713 8.40481 13.9099 8.42999C11.6699 8.72999 10.5199 10.79 10.1599 13.17Z" fill="#F6C63B"/>
</svg>
