<svg width="40" height="51" viewBox="0 0 40 51" fill="none" xmlns="http://www.w3.org/2000/svg">
<path id="Vector" d="M12 50.74C13.0343 47.858 13.8532 44.9032 14.45 41.9C31.45 43.64 45.57 26.81 37.58 10.19C33.59 2.06996 24 -1.00004 15.34 0.929958C10.22 1.36996 5.10667 1.70329 0 1.92996C1.83 23.39 0.91 33.93 2.86 50.67C5.91 50.74 8.97 50.75 12.02 50.74H12ZM16.26 16.83C17.1219 16.2862 18.0997 15.9531 19.1143 15.8575C20.1289 15.762 21.1517 15.9067 22.1 16.28C25.24 17.74 26.02 22.58 24.21 25.58C22.36 28.39 19.21 29.86 15.96 30.91C16.31 26.35 16.37 21.64 16.26 16.83Z" fill="white"/>
</svg>
