<svg width="143" height="43" viewBox="0 0 143 43" fill="none" xmlns="http://www.w3.org/2000/svg">
<g id="btn - menu" clip-path="url(#clip0_2_31)">
<g id="Layer 2">
<g id="Layer 1">
<path id="Vector" d="M121.5 1.5H21.5C10.4543 1.5 1.5 10.4543 1.5 21.5C1.5 32.5457 10.4543 41.5 21.5 41.5H121.5C132.546 41.5 141.5 32.5457 141.5 21.5C141.5 10.4543 132.546 1.5 121.5 1.5Z" fill="white" stroke="#546E4D" stroke-width="3" stroke-miterlimit="10"/>
<path id="Vector_2" d="M36.5 23.5H22.5V26.5H36.5V23.5Z" fill="#546E4D"/>
<path id="Vector_3" d="M42.5 16.5H22.5V19.5H42.5V16.5Z" fill="#546E4D"/>
<path id="Vector_4" d="M72.21 27.31V19.75L68.48 26H67.17L63.48 19.93V27.33H60.74V14.71H63.15L67.87 22.54L72.51 14.71H74.91V27.31H72.21Z" fill="#546E4D"/>
<path id="Vector_5" d="M87.16 23.2601H79.84C79.9547 23.8358 80.2881 24.3448 80.77 24.6801C81.3138 25.0417 81.9574 25.2236 82.61 25.2001C83.0818 25.222 83.5535 25.1541 84 25.0001C84.3758 24.821 84.7149 24.5734 85 24.2701L86.49 25.89C85.981 26.4308 85.3579 26.8514 84.666 27.1212C83.9741 27.3911 83.2308 27.5034 82.49 27.4501C81.4861 27.4712 80.4917 27.2518 79.59 26.81C78.7971 26.4038 78.1401 25.7747 77.7 25.0001C77.2386 24.2371 76.9964 23.3617 77 22.47C76.9906 21.5677 77.2256 20.6797 77.68 19.9C78.1179 19.1452 78.7589 18.5285 79.53 18.1201C80.3416 17.6865 81.25 17.4663 82.17 17.48C83.0642 17.4658 83.9477 17.6755 84.74 18.0901C85.501 18.4892 86.1297 19.1006 86.55 19.8501C87.0027 20.6586 87.2305 21.5736 87.21 22.5001C87.21 22.5001 87.2 22.7901 87.16 23.2601ZM80.59 20.14C80.1528 20.5188 79.8714 21.046 79.8 21.6201H84.57C84.4981 21.049 84.2166 20.5251 83.78 20.15C83.3368 19.7824 82.7758 19.587 82.2 19.6001C81.6161 19.5824 81.0452 19.7739 80.59 20.14Z" fill="#546E4D"/>
<path id="Vector_6" d="M97.8801 18.56C98.2749 18.989 98.5779 19.4941 98.7705 20.0443C98.963 20.5946 99.0412 21.1784 99.0001 21.76V27.31H96.1801V22.2C96.2278 21.5849 96.0501 20.9736 95.6801 20.48C95.4933 20.2839 95.2657 20.1312 95.0134 20.0327C94.7612 19.9342 94.4903 19.8923 94.2201 19.91C93.9078 19.8948 93.5958 19.9457 93.3046 20.0594C93.0134 20.1732 92.7494 20.3472 92.5301 20.57C92.073 21.1125 91.8468 21.8126 91.9001 22.52V27.31H89.0901V17.62H91.7701V18.76C92.1518 18.3258 92.6271 17.9838 93.1601 17.76C93.7497 17.5492 94.3745 17.4541 95.0001 17.48C95.5277 17.461 96.0538 17.5467 96.548 17.7321C97.0423 17.9174 97.4951 18.1988 97.8801 18.56Z" fill="#546E4D"/>
<path id="Vector_7" d="M111.28 17.62V27.31H108.62V26.16C108.258 26.5895 107.803 26.9314 107.29 27.16C106.758 27.3823 106.186 27.4945 105.61 27.49C105.062 27.5179 104.513 27.4349 103.998 27.2459C103.482 27.0569 103.01 26.7658 102.61 26.39C102.213 25.9521 101.909 25.4384 101.717 24.8797C101.524 24.3211 101.447 23.7293 101.49 23.14V17.62H104.3V22.68C104.3 24.24 104.96 25.02 106.3 25.02C106.602 25.0342 106.903 24.9826 107.183 24.8686C107.462 24.7546 107.714 24.581 107.92 24.36C108.372 23.815 108.594 23.1158 108.54 22.41V17.62H111.28Z" fill="#546E4D"/>
</g>
</g>
</g>
<defs>
<clipPath id="clip0_2_31">
<rect width="143" height="43" fill="white"/>
</clipPath>
</defs>
</svg>
